<svg width="26" height="26" viewBox="0 0 26 26" fill="none" xmlns="http://www.w3.org/2000/svg">
<path d="M12.9649 5.02721C14.8226 4.99855 16.6191 5.69251 17.9774 6.96346L21.6362 3.37596C19.2888 1.17039 16.1815 -0.0390273 12.9649 0.000960935C10.5616 0.000404079 8.20546 0.670256 6.16006 1.93561C4.11466 3.20096 2.46061 5.01192 1.3829 7.16596L5.57517 10.4297C6.08778 8.86678 7.07672 7.50463 8.40254 6.53535C9.72837 5.56607 11.3242 5.03856 12.9649 5.02721Z" fill="#E43E2B"/>
<path d="M25.4105 13.2898C25.4258 12.3962 25.3337 11.5039 25.1362 10.6323H12.9646V15.4573H20.11C19.9745 16.3033 19.6697 17.113 19.214 17.8377C18.7584 18.5625 18.1612 19.1874 17.4585 19.6748L21.5498 22.8523C22.8249 21.6179 23.8276 20.1291 24.4932 18.482C25.1589 16.8349 25.4726 15.0661 25.4142 13.2898H25.4105Z" fill="#3B7DED"/>
<path d="M5.59011 15.5718C5.30666 14.7442 5.16053 13.8756 5.15755 13.0005C5.16272 12.1269 5.30361 11.2594 5.57515 10.4293L1.38289 7.16553C0.473622 8.9757 0 10.9743 0 13.0012C0 15.028 0.473622 17.0266 1.38289 18.8368L5.59011 15.5718Z" fill="#F0B501"/>
<path d="M12.9649 26.001C16.1228 26.0906 19.195 24.9638 21.5501 22.8523L17.4588 19.6748C16.1322 20.5665 14.5613 21.021 12.9649 20.9748C11.3255 20.965 9.73085 20.4379 8.40711 19.4681C7.08336 18.4984 6.09774 17.1353 5.59006 15.5723L1.3978 18.8373C2.4726 20.9903 4.12394 22.8009 6.16687 24.0661C8.20981 25.3314 10.5637 26.0013 12.9649 26.001Z" fill="#2BA24C"/>
</svg>
